<svg width="50" height="50" viewBox="0 0 50 50" fill="none" xmlns="http://www.w3.org/2000/svg">
<g clip-path="url(#clip0_5668_178)">
<path fill-rule="evenodd" clip-rule="evenodd" d="M25 0C38.8071 0 50 11.1929 50 25C50 38.8071 38.8071 50 25 50C11.1929 50 0 38.8071 0 25C0 11.1929 11.1929 0 25 0Z" fill="black"/>
<path d="M31.117 15.3867H34.3788L27.2525 23.5319L35.6363 34.6154H29.0717L23.9304 27.8932L18.0474 34.6154H14.7834L22.4057 25.9033L14.3633 15.3867H21.0941L25.7416 21.531L31.117 15.3867ZM29.9721 32.6629H31.7797L20.1121 17.2367H18.1727L29.9721 32.6629Z" fill="white"/>
</g>
<defs>
<clipPath id="clip0_5668_178">
<rect width="50" height="50" fill="white"/>
</clipPath>
</defs>
</svg>
