<svg width="50" height="50" viewBox="0 0 50 50" fill="none" xmlns="http://www.w3.org/2000/svg">
<rect x="12.5" y="14.0625" width="25" height="21.875" fill="white"/>
<g clip-path="url(#clip0_5673_122)">
<path d="M39.6156 7.30859H10.3844C4.64923 7.30859 0 11.9578 0 17.693V32.3055C0 38.0406 4.64923 42.6899 10.3844 42.6899H39.6156C45.3508 42.6899 50 38.0406 50 32.3055V17.693C50 11.9578 45.3508 7.30859 39.6156 7.30859ZM32.5928 25.7102L18.9203 32.2311C18.556 32.4048 18.1352 32.1392 18.1352 31.7357V18.2862C18.1352 17.8769 18.5671 17.6116 18.9322 17.7966L32.6046 24.7251C33.0111 24.9311 33.0041 25.5141 32.5928 25.7102Z" fill="#F61C0D"/>
</g>
<defs>
<clipPath id="clip0_5673_122">
<rect width="50" height="50" fill="white"/>
</clipPath>
</defs>
</svg>
